<svg width="450" height="396" viewBox="0 0 450 396" fill="none" xmlns="http://www.w3.org/2000/svg">
<path fill-rule="evenodd" clip-rule="evenodd" d="M202.718 9.02316C241.587 7.42297 280.374 -7.8479 317 5.29164C357.923 19.9726 393.533 48.6627 416.423 85.6899C440.966 125.39 453.582 172.504 449.111 218.989C444.527 266.642 428.892 317.705 391.268 347.209C354.861 375.76 302.753 361.491 257.214 369.473C217.922 376.36 177.891 408.227 141.939 390.911C105.368 373.297 109.433 318.226 84.3883 286.236C61.2019 256.619 12.1718 248.668 2.17349 212.383C-7.82664 176.091 19.0328 140.817 34.9168 106.698C50.6735 72.8511 62.0863 33.2187 94.3143 14.4592C126.246 -4.12751 165.821 10.5421 202.718 9.02316Z" fill="#A34A4A"/>
</svg>
